<svg xmlns="http://www.w3.org/2000/svg" version="1.1" xmlns:xlink="http://www.w3.org/1999/xlink" xmlns:svgjs="http://svgjs.dev/svgjs" width="1500" height="1500" viewBox="0 0 1500 1500"><g transform="matrix(0.6666666666666666,0,0,0.6666666666666666,249.39509520623272,490.269969722037)"><svg viewBox="0 0 396 206" data-background-color="#1f0f53" preserveAspectRatio="xMidYMid meet" height="780" width="1500" xmlns="http://www.w3.org/2000/svg" xmlns:xlink="http://www.w3.org/1999/xlink"><g id="tight-bounds" transform="matrix(1,0,0,1,0.23997330715212684,-0.10694954373005316)"><svg viewBox="0 0 395.52 206.2138990874601" height="206.2138990874601" width="395.52"><g><svg viewBox="0 0 395.52 206.2138990874601" height="206.2138990874601" width="395.52"><g transform="matrix(1,0,0,1,0,106.23089055736853)"><svg viewBox="0 0 395.52 99.98300853009158" height="99.98300853009158" width="395.52"><g id="textblocktransform"><svg viewBox="0 0 395.52 99.98300853009158" height="99.98300853009158" width="395.52" id="textblock"><g><svg viewBox="0 0 395.52 99.98300853009158" height="99.98300853009158" width="395.52"><g transform="matrix(1,0,0,1,0,0)"><svg width="395.52" viewBox="-0.20023896579159658 -18.47274610837593 262.84090896579147 66.44318066514307" height="99.98300853009158" data-palette-color="#ffdb99"><path d="M1.855 17.265v0c-0.135-0.036-0.199-0.07-0.189-0.102v0c0.01-0.039 0.022-0.056 0.034-0.053 0.019 0.005 0.033-0.008 0.042-0.04v0c0.583-0.424 1.164-0.831 1.745-1.222 0.572-0.385 1.118-0.802 1.638-1.249v0c-1.122-0.838-2.017-1.864-2.687-3.078-0.669-1.214-0.81-2.545-0.423-3.995v0c0.263-0.985 0.782-1.882 1.557-2.689 0.775-0.807 1.64-1.373 2.596-1.697v0c0.2-0.05 0.367-0.057 0.503-0.021v0c0.167 0.045 0.238 0.115 0.212 0.212v0c-0.019 0.071-0.071 0.123-0.155 0.155-0.078 0.034-0.161 0.074-0.249 0.12v0c-0.538 0.257-0.961 0.651-1.269 1.183-0.301 0.534-0.529 1.09-0.684 1.67v0c-0.723 2.705-0.078 5.03 1.935 6.975v0c2.931-2.55 5.679-5.266 8.243-8.148 2.564-2.882 5.164-5.728 7.798-8.536v0c1.774-1.886 3.726-3.666 5.857-5.339 2.133-1.68 4.351-3.098 6.654-4.256v0c-1.285-0.744-2.624-1.402-4.016-1.974-1.386-0.571-2.807-1.05-4.263-1.439v0c-2.261-0.604-4.618-0.962-7.073-1.073-2.455-0.111-4.81 0.129-7.066 0.721-2.262 0.589-4.239 1.648-5.931 3.176-1.697 1.52-2.906 3.633-3.629 6.338v0c-0.162 0.605-0.308 1.319-0.437 2.14-0.122 0.816-0.157 1.632-0.105 2.446 0.053 0.808 0.261 1.515 0.623 2.122 0.37 0.603 0.977 1.017 1.821 1.243v0c0.064 0.017 0.146 0.049 0.243 0.096 0.098 0.047 0.134 0.119 0.108 0.215v0c-0.028 0.103-0.149 0.143-0.363 0.12-0.21-0.015-0.35-0.032-0.421-0.05v0c-0.708-0.189-1.387-0.554-2.037-1.093v0c-1.103-0.909-1.875-1.957-2.317-3.145-0.442-1.188-0.466-2.453-0.072-3.797v0l0.067-0.251c0.57-1.876 1.435-3.55 2.594-5.021v0c1.534-1.943 3.408-3.406 5.623-4.387 2.223-0.986 4.61-1.601 7.159-1.844 2.543-0.245 5.081-0.226 7.614 0.057 2.534 0.277 4.884 0.705 7.047 1.283v0c1.32 0.353 2.625 0.764 3.915 1.233 1.288 0.475 2.536 1.019 3.745 1.632v0c1.777-0.684 3.598-1.122 5.465-1.314 1.86-0.193 3.704-0.045 5.533 0.444v0c0.612 0.164 1.208 0.412 1.788 0.747 0.578 0.341 1.035 0.763 1.369 1.266 0.335 0.503 0.402 1.129 0.203 1.876v0c-0.053 0.2-0.199 0.513-0.438 0.939-0.238 0.426-0.498 0.819-0.78 1.178-0.276 0.361-0.533 0.51-0.772 0.446v0c-0.135-0.036-0.185-0.122-0.148-0.257v0c0.045-0.167 0.128-0.335 0.248-0.503 0.114-0.17 0.198-0.354 0.252-0.554v0c0.208-0.779 0.066-1.462-0.426-2.049-0.5-0.582-1.125-1.056-1.876-1.423-0.757-0.368-1.439-0.633-2.044-0.794v0c-1.217-0.325-2.426-0.41-3.627-0.255-1.199 0.149-2.367 0.451-3.503 0.906v0c0.756 0.423 1.561 0.938 2.413 1.545 0.852 0.607 1.628 1.294 2.327 2.061 0.699 0.766 1.209 1.61 1.528 2.53 0.315 0.912 0.337 1.877 0.065 2.895v0c-0.325 1.217-0.962 2.244-1.91 3.082-0.946 0.83-2.067 1.497-3.361 2-1.295 0.509-2.663 0.889-4.103 1.139-1.446 0.248-2.856 0.396-4.228 0.444-1.372 0.047-2.575 0.043-3.609-0.012v0l2.483 0.663c0.985 0.263 1.953 0.477 2.903 0.641 0.95 0.164 1.898 0.373 2.845 0.626v0c1.185 0.317 2.19 0.83 3.014 1.54 0.826 0.704 1.054 1.751 0.682 3.143v0c-0.253 0.947-0.74 1.893-1.462 2.839-0.724 0.952-1.427 1.751-2.111 2.396v0c-1.044 1.067-2.387 1.96-4.028 2.681-1.642 0.721-3.338 1.271-5.089 1.652-1.751 0.381-3.35 0.633-4.798 0.757v0c-1.8 0.099-3.65 0.039-5.552-0.18v0c-0.665-0.067-1.324-0.171-1.977-0.31-0.653-0.14-1.317-0.3-1.993-0.481v0c-0.741-0.198-1.487-0.425-2.24-0.682-0.748-0.248-1.494-0.544-2.237-0.887v0c-0.27 0.466-0.635 0.748-1.096 0.846v0c-0.195 0.058-0.562 0.05-1.101-0.025-0.547-0.07-1.1-0.146-1.657-0.226-0.56-0.074-1.009-0.083-1.349-0.029v0c-0.264 0.033-0.526 0.07-0.785 0.111-0.266 0.039-0.534 0.023-0.804-0.05zM24.384 0.669v0c0.747 0.2 1.799 0.329 3.157 0.388 1.366 0.054 2.839 0.003 4.419-0.154 1.581-0.157 3.11-0.418 4.588-0.782 1.471-0.366 2.736-0.863 3.793-1.491 1.056-0.622 1.707-1.39 1.951-2.305v0c0.217-0.812 0.147-1.634-0.21-2.468-0.355-0.84-0.878-1.632-1.569-2.376-0.69-0.75-1.414-1.434-2.175-2.05-0.752-0.622-1.439-1.123-2.061-1.504v0c-2.335 1.405-4.527 3.165-6.577 5.282-2.056 2.114-4.008 4.191-5.857 6.229v0c-0.119 0.189-0.193 0.335-0.22 0.438v0c-0.062 0.232 0.007 0.412 0.207 0.541 0.202 0.123 0.386 0.207 0.554 0.252zM12.056 6.131v0c-0.032-0.009-0.049-0.051-0.049-0.127 0.004-0.068 0.011-0.118 0.019-0.15v0c0.055-0.206 0.133-0.396 0.235-0.568 0.095-0.175 0.184-0.341 0.268-0.498v0c0.773-1.422 1.518-2.917 2.233-4.485 0.709-1.57 1.271-3.131 1.687-4.684v0c0.072-0.271 0.153-0.649 0.241-1.136 0.093-0.479 0.117-0.942 0.071-1.389-0.04-0.445-0.246-0.718-0.62-0.818v0c-0.374-0.1-0.645-0.038-0.815 0.186-0.165 0.232-0.335 0.324-0.509 0.278v0c-0.064-0.017-0.083-0.077-0.056-0.18v0c0.019-0.071 0.079-0.165 0.179-0.284v0c0.441-0.565 1.029-1.06 1.764-1.485 0.726-0.42 1.463-0.53 2.21-0.33v0c0.605 0.162 1.005 0.486 1.2 0.972 0.201 0.488 0.268 1.024 0.202 1.607-0.064 0.576-0.16 1.103-0.288 1.579v0c-0.523 1.958-1.451 3.829-2.783 5.612-1.326 1.785-2.645 3.444-3.959 4.977v0c-0.068 0.127-0.258 0.321-0.57 0.582-0.305 0.264-0.525 0.377-0.66 0.341zM13.827 17.204v0c0.541 0.145 1.078 0.267 1.61 0.368 0.537 0.109 1.084 0.203 1.642 0.284v0c1.44 0.164 2.997 0.135 4.671-0.087 1.668-0.224 3.34-0.619 5.016-1.186 1.676-0.566 3.214-1.298 4.613-2.193 1.399-0.896 2.53-1.953 3.393-3.171v0c0.175-0.243 0.335-0.49 0.478-0.742 0.137-0.253 0.241-0.515 0.314-0.786v0c0.244-0.915 0.07-1.72-0.524-2.417-0.592-0.703-1.38-1.304-2.365-1.802-0.991-0.5-1.995-0.913-3.012-1.239-1.023-0.329-1.854-0.578-2.491-0.749v0c-0.676-0.181-1.376-0.35-2.1-0.509-0.717-0.157-1.423-0.291-2.118-0.401v0c-0.623-0.097-1.145-0.065-1.569 0.099-0.428 0.155-0.865 0.462-1.313 0.922v0c-0.655 0.694-1.299 1.413-1.931 2.154-0.631 0.735-1.279 1.466-1.942 2.193v0c-1.104 1.265-2.214 2.527-3.331 3.789-1.109 1.256-2.219 2.533-3.332 3.83v0c0.668 0.365 1.364 0.679 2.088 0.94 0.728 0.271 1.463 0.505 2.203 0.703zM37.392 24.036v0c-0.379-0.075-0.857-0.235-1.434-0.478-0.578-0.237-0.813-0.63-0.704-1.18v0c0.061-0.307 0.204-0.582 0.428-0.822v0c1.337-1.876 2.918-3.73 4.743-5.564 1.831-1.832 3.786-3.497 5.863-4.995 2.084-1.497 4.177-2.696 6.28-3.598v0c0.664-0.263 1.411-0.383 2.243-0.36 0.832 0.022 1.574 0.098 2.228 0.228v0c0.242 0.048 0.474 0.094 0.696 0.138 0.222 0.044 0.432 0.12 0.628 0.226v0c0.279-0.516 0.82-0.826 1.623-0.932 0.809-0.105 1.452-0.11 1.929-0.015v0c0.517 0.102 0.738 0.34 0.664 0.713v0c-0.048 0.242-0.168 0.487-0.359 0.734-0.192 0.247-0.341 0.469-0.448 0.665v0c-0.496 0.683-1.243 1.436-2.242 2.257-1.004 0.814-2.072 1.557-3.205 2.23-1.131 0.666-2.107 1.098-2.928 1.295v0c0.242 0.048 0.679 0.141 1.311 0.28 0.63 0.145 1.241 0.338 1.833 0.578 0.597 0.247 0.92 0.519 0.97 0.814v0c-0.052 0.058-0.127 0.077-0.226 0.057v0c-1.126-0.081-2.226-0.173-3.299-0.277-1.067-0.103-2.177-0.126-3.33-0.069v0c-0.505 0.043-1.012 0.085-1.524 0.126-0.505 0.043-1.016 0.101-1.533 0.175v0l-1.376 0.207c-0.275-0.054-0.499-0.225-0.674-0.511-0.176-0.28-0.331-0.541-0.466-0.786v0c-0.442 0.449-0.959 0.999-1.551 1.65-0.598 0.649-1.141 1.317-1.63 2.001-0.497 0.69-0.806 1.342-0.928 1.957v0c-0.123 0.621-0.022 1.107 0.302 1.457 0.325 0.35 0.762 0.579 1.311 0.688v0c1.027 0.204 2.236 0.138 3.628-0.198 1.384-0.33 2.757-0.779 4.12-1.345 1.364-0.572 2.499-1.088 3.406-1.547v0c0.125-0.084 0.224-0.119 0.296-0.104v0c0.137 0.027 0.182 0.162 0.134 0.404v0c-0.048 0.242-0.223 0.493-0.526 0.752v0c-0.868 0.609-1.985 1.2-3.349 1.772-1.363 0.566-2.756 1.01-4.179 1.333-1.418 0.331-2.693 0.472-3.825 0.424v0c-0.812-0.052-1.627-0.088-2.446-0.108-0.812-0.018-1.63-0.109-2.454-0.272zM46.152 14.1v0c1.992-0.142 3.995-0.064 6.009 0.233v0c0.14-0.156 0.32-0.31 0.541-0.464 0.226-0.145 0.421-0.273 0.586-0.383v0c1.02-0.62 1.969-1.343 2.846-2.168 0.877-0.825 1.497-1.793 1.86-2.904v0l0.068-0.088c0.014-0.072-0.129-0.155-0.43-0.249-0.307-0.095-0.494-0.149-0.559-0.161v0c-0.824-0.163-1.748-0.044-2.772 0.357-1.024 0.402-2.055 0.955-3.092 1.661-1.03 0.706-1.988 1.438-2.872 2.193-0.876 0.751-1.605 1.408-2.185 1.973zM54.19 27.6v0c-0.277-0.04-0.547-0.133-0.808-0.279v0c0.258-0.569 0.597-1.139 1.017-1.712 0.421-0.579 0.81-1.125 1.167-1.639v0c1.285-1.794 2.725-3.545 4.321-5.253 1.59-1.716 3.305-3.299 5.146-4.75 1.834-1.451 3.743-2.649 5.726-3.594v0c0.341-0.166 0.827-0.247 1.46-0.242 0.639 0.005 1.297 0.047 1.973 0.125 0.681 0.086 1.194 0.153 1.537 0.203v0c0.211 0.031 0.746 0.125 1.605 0.284 0.859 0.159 1.805 0.35 2.837 0.573 1.026 0.216 1.922 0.424 2.689 0.623 0.766 0.199 1.159 0.37 1.178 0.515v0c-0.431 0.045-0.892 0.157-1.383 0.335-0.484 0.179-0.89 0.42-1.216 0.722v0c-1.683 1.386-3.2 2.944-4.549 4.675-1.35 1.731-2.614 3.501-3.793 5.31v0c-0.141 0.229-0.294 0.473-0.46 0.731-0.159 0.26-0.259 0.528-0.299 0.806v0c-0.03 0.205 0.008 0.314 0.114 0.329v0c0.066 0.01 0.157-0.011 0.271-0.061 0.116-0.057 0.193-0.1 0.231-0.128v0c1.364-0.859 2.931-1.72 4.7-2.581 1.768-0.855 3.438-1.451 5.009-1.789v0c0.038-0.028 0.203-0.075 0.496-0.14 0.292-0.065 0.458-0.095 0.498-0.089v0c0.099 0.014 0.162 0.067 0.189 0.159 0.021 0.091 0.042 0.175 0.064 0.251v0c-0.848 0.227-1.837 0.585-2.965 1.075-1.136 0.495-2.289 1.055-3.458 1.681-1.169 0.625-2.254 1.279-3.256 1.962-1.003 0.69-1.815 1.343-2.437 1.96v0c-0.168 0.184-0.317 0.375-0.447 0.572-0.135 0.189-0.29 0.396-0.463 0.619v0c-0.272 0.385-0.623 0.6-1.054 0.645-0.431 0.045-0.871 0.035-1.32-0.03v0c-0.139-0.02-0.445-0.092-0.918-0.214-0.481-0.124-0.929-0.28-1.347-0.468-0.412-0.181-0.605-0.357-0.58-0.529v0c0.035-0.244 0.324-0.724 0.866-1.441 0.549-0.715 1.245-1.544 2.089-2.485 0.843-0.935 1.698-1.882 2.565-2.841 0.859-0.953 1.645-1.792 2.357-2.517 0.705-0.726 1.203-1.23 1.492-1.511v0c-1.26 0.881-2.575 1.701-3.944 2.458-1.362 0.752-2.718 1.508-4.068 2.269v0c-1.471 0.851-2.973 1.687-4.508 2.508-1.533 0.815-3.091 1.569-4.674 2.261v0c-0.566 0.234-1.159 0.421-1.779 0.56-0.621 0.146-1.244 0.173-1.871 0.082zM59.695 24.419v0c0.205 0.03 0.468-0.023 0.791-0.158 0.322-0.128 0.576-0.233 0.763-0.314v0c1.473-0.635 3.025-1.39 4.654-2.264 1.629-0.875 3.239-1.8 4.829-2.775 1.596-0.967 3.026-1.908 4.29-2.822v0c0.317-0.237 0.697-0.556 1.139-0.956 0.448-0.393 0.704-0.814 0.77-1.263v0c0.071-0.488-0.156-0.875-0.68-1.16-0.524-0.292-1.119-0.503-1.788-0.633-0.675-0.132-1.184-0.222-1.526-0.273v0c-0.211-0.031-0.473-0.059-0.787-0.084-0.312-0.032-0.564 0.009-0.755 0.123v0c-0.884 0.471-1.848 1.126-2.893 1.965-1.039 0.846-2.085 1.782-3.136 2.808-1.053 1.033-2.019 2.071-2.898 3.116-0.872 1.039-1.6 1.974-2.186 2.804v0c-0.125 0.164-0.29 0.399-0.497 0.706-0.205 0.3-0.326 0.572-0.361 0.817v0c-0.031 0.211 0.06 0.332 0.271 0.363zM91.024 32.091v0c-0.106-0.009-0.403-0.063-0.89-0.159-0.48-0.096-0.94-0.228-1.38-0.394-0.448-0.16-0.664-0.327-0.648-0.5v0c0.022-0.246 0.287-0.741 0.795-1.485 0.508-0.744 1.158-1.61 1.948-2.597 0.79-0.98 1.588-1.973 2.394-2.979 0.812-0.999 1.55-1.88 2.214-2.644 0.67-0.763 1.139-1.294 1.406-1.592v0c-1.093 0.853-2.247 1.664-3.459 2.433-1.207 0.776-2.407 1.549-3.6 2.319v0c-1.534 0.988-3.097 1.973-4.691 2.955-1.6 0.982-3.227 1.891-4.882 2.728v0c-0.37 0.174-0.806 0.336-1.308 0.485-0.509 0.149-0.972 0.204-1.391 0.167v0c-0.73-0.065-1.066-0.43-1.006-1.093v0c0.028-0.312 0.116-0.629 0.265-0.95 0.156-0.321 0.316-0.614 0.48-0.881v0c1.071-1.799 2.295-3.517 3.672-5.155 1.377-1.631 2.831-3.151 4.363-4.56v0c0.003-0.033 0.012-0.059 0.027-0.078 0.022-0.018 0.034-0.044 0.037-0.077v0c0.006-0.066-0.059-0.126-0.195-0.178-0.136-0.046-0.241-0.072-0.315-0.078v0c-0.518-0.046-1.246 0.046-2.183 0.277-0.931 0.238-1.799 0.322-2.602 0.25v0c-0.073-0.007-0.168-0.035-0.284-0.086-0.117-0.044-0.169-0.136-0.156-0.275v0c0.012-0.139 0.099-0.246 0.259-0.318 0.167-0.072 0.305-0.12 0.415-0.144v0c0.719-0.184 1.443-0.34 2.17-0.469 0.734-0.129 1.444-0.286 2.13-0.473v0c1.11-0.289 2.185-0.632 3.224-1.027 1.04-0.403 2.086-0.801 3.139-1.196v0c0.146-0.061 0.289-0.085 0.428-0.073v0c0.246 0.022 0.359 0.139 0.34 0.352v0c-0.012 0.139-0.067 0.265-0.164 0.377-0.104 0.118-0.209 0.206-0.315 0.263v0c-1.655 1.225-3.222 2.624-4.701 4.199-1.472 1.569-2.745 3.239-3.82 5.011v0c-0.164 0.266-0.37 0.616-0.616 1.049-0.253 0.433-0.395 0.825-0.426 1.177v0c-0.031 0.345 0.13 0.534 0.482 0.565v0c0.418 0.037 1.121-0.181 2.106-0.656 0.993-0.474 2.102-1.094 3.329-1.861 1.233-0.767 2.466-1.571 3.698-2.411 1.233-0.841 2.347-1.621 3.342-2.343 1.001-0.714 1.707-1.247 2.12-1.598v0c0.304-0.254 0.682-0.635 1.136-1.144 0.446-0.502 0.685-0.929 0.717-1.281v0c0.015-0.173-0.002-0.278-0.053-0.316-0.05-0.038-0.073-0.077-0.07-0.117v0c0.006-0.066 0.203-0.169 0.59-0.309 0.381-0.147 0.833-0.301 1.357-0.461 0.524-0.168 1.011-0.308 1.463-0.422 0.446-0.121 0.738-0.175 0.878-0.162v0c0.139 0.012 0.203 0.088 0.19 0.228v0c-0.028 0.312-0.274 0.819-0.738 1.52-0.47 0.694-0.97 1.386-1.5 2.075-0.537 0.695-0.924 1.173-1.162 1.432v0c-0.234 0.294-0.605 0.823-1.115 1.588-0.509 0.758-1.042 1.587-1.597 2.488-0.549 0.901-1.034 1.728-1.456 2.48-0.415 0.753-0.637 1.285-0.665 1.598v0c-0.009 0.106 0.019 0.162 0.086 0.168v0c0.073 0.007 0.145-0.014 0.216-0.061 0.078-0.047 0.135-0.085 0.171-0.116v0c1.275-0.937 2.774-1.874 4.497-2.811 1.717-0.938 3.314-1.622 4.792-2.053v0c0.069-0.027 0.269-0.09 0.599-0.187 0.323-0.092 0.501-0.136 0.533-0.134v0c0.179 0.016 0.291 0.15 0.336 0.402v0c-0.904 0.308-1.973 0.774-3.207 1.401-1.234 0.626-2.485 1.331-3.753 2.115-1.261 0.784-2.406 1.613-3.434 2.485-1.029 0.879-1.771 1.736-2.227 2.572v0c-0.217 0.402-0.555 0.637-1.016 0.702-0.461 0.066-0.901 0.08-1.319 0.043zM103.493 33.197v0c-0.1-0.004-0.379-0.043-0.836-0.116-0.451-0.073-0.883-0.181-1.297-0.325-0.415-0.138-0.618-0.293-0.611-0.467v0c0.022-0.526 0.29-1.242 0.803-2.148 0.512-0.906 1.149-1.913 1.91-3.021 0.768-1.108 1.596-2.231 2.486-3.367 0.889-1.13 1.715-2.189 2.477-3.177 0.756-0.982 1.385-1.803 1.887-2.462 0.502-0.666 0.756-1.069 0.762-1.209v0c0.006-0.14-0.155-0.27-0.484-0.391-0.329-0.114-0.674-0.222-1.037-0.324-0.362-0.109-0.613-0.166-0.753-0.173v0c-0.104-0.071-0.153-0.177-0.147-0.316v0c0.018-0.42 0.303-0.688 0.855-0.804 0.545-0.117 1.125-0.179 1.74-0.187 0.614-0.014 1.025-0.016 1.231-0.007v0c0.228-0.337 0.511-0.806 0.851-1.405 0.339-0.599 0.645-1.207 0.918-1.823 0.273-0.622 0.418-1.107 0.432-1.453v0c0.014-0.32-0.057-0.543-0.211-0.669-0.148-0.126-0.221-0.21-0.22-0.25v0c0.003-0.067 0.192-0.189 0.566-0.366 0.375-0.178 0.829-0.358 1.365-0.542 0.535-0.191 1.032-0.346 1.491-0.467 0.459-0.121 0.758-0.178 0.898-0.172v0c0.14 0.006 0.222 0.123 0.245 0.351 0.03 0.228 0.044 0.379 0.041 0.452v0c-0.027 0.626-0.278 1.359-0.754 2.2-0.476 0.84-1.002 1.659-1.576 2.455-0.574 0.796-1.067 1.466-1.477 2.009v0l5.765 0.245c0.107 0.005 0.158 0.043 0.155 0.117v0c-0.007 0.173-0.147 0.394-0.419 0.663-0.278 0.268-0.504 0.399-0.677 0.391v0c-0.559-0.024-1.103-0.02-1.632 0.011-0.522 0.031-1.063 0.051-1.624 0.061v0c-0.667 0.005-1.377 0.131-2.128 0.379-0.745 0.249-1.322 0.644-1.732 1.188v0c-0.296 0.374-0.76 1.005-1.392 1.892-0.631 0.881-1.286 1.834-1.964 2.859-0.671 1.019-1.245 1.975-1.724 2.869-0.472 0.887-0.716 1.524-0.732 1.911v0c-0.013 0.313 0.1 0.475 0.34 0.485v0c0.213 0.009 0.453-0.067 0.72-0.23 0.274-0.162 0.483-0.293 0.628-0.393v0c1.258-0.854 2.544-1.673 3.858-2.458 1.315-0.785 2.683-1.427 4.106-1.927v0c0.068-0.037 0.228-0.094 0.477-0.17 0.25-0.076 0.392-0.113 0.426-0.112v0c0.213 0.009 0.314 0.137 0.304 0.383v0c-0.856 0.351-1.885 0.857-3.088 1.52-1.203 0.669-2.427 1.441-3.672 2.316-1.252 0.874-2.361 1.774-3.328 2.701-0.967 0.92-1.661 1.791-2.083 2.613v0c-0.191 0.412-0.499 0.663-0.923 0.752-0.424 0.089-0.829 0.125-1.216 0.108zM112.095 47.97v0c-0.807 0.007-1.648-0.12-2.523-0.379-0.875-0.253-1.612-0.677-2.211-1.271-0.605-0.588-0.911-1.356-0.919-2.303v0c-0.002-0.28 0.074-0.707 0.229-1.282 0.155-0.581 0.371-1.116 0.647-1.605 0.276-0.496 0.587-0.745 0.934-0.748v0c0.173-0.001 0.261 0.138 0.263 0.418v0c0.006 0.773 0.12 1.606 0.341 2.497 0.214 0.885 0.604 1.642 1.169 2.27v0c0.848 0.9 1.851 1.345 3.011 1.335v0c1.227-0.01 2.553-0.501 3.978-1.473 1.425-0.972 2.895-2.261 4.408-3.867 1.507-1.606 2.979-3.378 4.416-5.317 1.437-1.939 2.784-3.883 4.041-5.834 1.264-1.957 2.369-3.77 3.315-5.437 0.953-1.668 1.688-3.031 2.206-4.089v0c-0.456 0.53-0.968 1.025-1.537 1.483-0.576 0.458-1.126 0.899-1.649 1.324v0c-1.907 1.523-3.898 3.079-5.972 4.67-2.067 1.597-4.145 3.051-6.234 4.362v0c-0.352 0.21-0.78 0.413-1.285 0.61-0.505 0.198-0.968 0.298-1.387 0.302v0c-0.733 0.006-1.103-0.324-1.108-0.991v0c-0.003-0.313 0.055-0.637 0.172-0.971 0.117-0.334 0.245-0.642 0.382-0.923v0c0.898-1.894 1.952-3.723 3.164-5.487 1.205-1.757 2.502-3.411 3.889-4.963v0c0.04-0.034 0.059-0.087 0.059-0.16v0c-0.001-0.067-0.071-0.119-0.212-0.158-0.14-0.032-0.247-0.048-0.32-0.048v0c-0.107 0.001-0.3 0.039-0.579 0.115v0c-0.659 0.179-1.337 0.368-2.035 0.567-0.698 0.199-1.398 0.302-2.098 0.308v0c-0.073 0.001-0.163-0.019-0.27-0.058-0.1-0.033-0.151-0.119-0.153-0.259v0c-0.001-0.14 0.068-0.254 0.208-0.342 0.139-0.088 0.259-0.149 0.358-0.183v0c0.698-0.252 1.406-0.478 2.124-0.677 0.718-0.199 1.427-0.425 2.125-0.678v0c1.043-0.395 2.07-0.841 3.079-1.336 1.016-0.502 2.012-1 2.988-1.495v0c0.066-0.034 0.136-0.061 0.209-0.081 0.067-0.021 0.136-0.031 0.21-0.032v0c0.247-0.002 0.371 0.104 0.372 0.317v0c0.001 0.14-0.044 0.27-0.136 0.391-0.086 0.127-0.178 0.225-0.278 0.292v0c-1.496 1.346-2.909 2.891-4.242 4.636-1.339 1.745-2.454 3.531-3.345 5.358v0c-0.138 0.281-0.311 0.649-0.521 1.104-0.203 0.455-0.303 0.859-0.3 1.213v0c0.003 0.347 0.178 0.519 0.524 0.515v0c0.42-0.004 1.101-0.289 2.043-0.857 0.942-0.568 1.996-1.293 3.162-2.176 1.166-0.883 2.322-1.813 3.467-2.789 1.145-0.97 2.178-1.852 3.098-2.646 0.927-0.794 1.579-1.387 1.956-1.776v0c0.278-0.282 0.618-0.699 1.019-1.249 0.395-0.543 0.592-0.992 0.589-1.345v0c-0.001-0.173-0.036-0.266-0.102-0.279-0.073-0.019-0.111-0.066-0.111-0.139v0c0-0.033 0.053-0.077 0.159-0.131 0.106-0.054 0.176-0.098 0.208-0.132v0c0.172-0.108 0.531-0.284 1.076-0.529 0.538-0.251 1.076-0.476 1.615-0.674 0.545-0.198 0.904-0.298 1.077-0.299v0c0.14-0.001 0.211 0.068 0.212 0.209v0c0.002 0.28-0.16 0.781-0.488 1.504-0.327 0.716-0.714 1.506-1.16 2.37-0.446 0.864-0.87 1.654-1.27 2.37-0.394 0.723-0.676 1.226-0.848 1.507v0c-1.038 1.862-2.177 3.918-3.419 6.169-1.241 2.25-2.613 4.505-4.113 6.764-1.508 2.253-3.154 4.313-4.939 6.182-1.791 1.868-3.739 3.381-5.842 4.539-2.11 1.158-4.409 1.747-6.896 1.767zM142.016 37.801v0c-0.737 0.065-1.491 0.018-2.261-0.142-0.764-0.16-1.424-0.48-1.982-0.96-0.55-0.473-0.863-1.129-0.937-1.965v0c-0.043-0.491 0.064-1.056 0.322-1.695 0.265-0.639 0.693-0.985 1.284-1.037v0c0.246-0.022 0.376 0.054 0.391 0.227v0c0.016 0.179-0.113 0.499-0.387 0.958-0.28 0.466-0.392 1.015-0.336 1.646v0c0.052 0.591 0.313 1.04 0.781 1.346 0.469 0.313 1.006 0.514 1.609 0.601 0.603 0.087 1.151 0.109 1.642 0.066v0c1.255-0.111 2.456-0.612 3.602-1.503 1.153-0.892 2.194-1.944 3.125-3.157 0.931-1.207 1.687-2.307 2.268-3.302v0c1.8-3.11 3.405-6.311 4.814-9.601 1.416-3.291 2.877-6.565 4.383-9.824 1.499-3.258 3.245-6.38 5.236-9.367v0c0.459-0.71 0.96-1.407 1.502-2.09 0.536-0.676 1.091-1.321 1.667-1.934v0c-2.624-0.685-5.47-1.2-8.539-1.545-3.068-0.338-5.947-0.388-8.637-0.151v0c-2.995 0.264-5.579 0.938-7.753 2.02-2.173 1.089-3.791 2.657-4.854 4.705-1.065 2.042-1.455 4.666-1.172 7.874v0c0.086 0.976 0.23 2.038 0.431 3.184 0.208 1.139 0.566 2.205 1.076 3.198 0.509 0.992 1.226 1.762 2.151 2.31v0c0.41 0.245 0.94 0.446 1.589 0.602v0c0.069 0.027 0.159 0.053 0.268 0.077 0.109 0.024 0.168 0.089 0.178 0.195v0c0.009 0.106-0.038 0.174-0.143 0.204-0.105 0.023-0.191 0.037-0.257 0.042v0c-0.418 0.037-0.959-0.099-1.622-0.408-0.656-0.31-1.155-0.574-1.495-0.792v0c-1.238-0.908-2.256-2.013-3.054-3.314-0.804-1.301-1.272-2.699-1.404-4.193v0c-0.016-0.179-0.03-0.339-0.042-0.478-0.012-0.139-0.005-0.281 0.023-0.424v0c0.032-3.583 0.881-6.583 2.548-8.999 1.667-2.416 3.883-4.271 6.646-5.566 2.77-1.302 5.811-2.099 9.125-2.392v0c1.78-0.157 3.666-0.173 5.658-0.048 1.999 0.125 3.985 0.334 5.958 0.629 1.981 0.3 3.834 0.675 5.561 1.125v0c1.438-1.218 2.984-2.208 4.636-2.969 1.659-0.762 3.429-1.226 5.308-1.393v0c0.631-0.056 1.324-0.047 2.081 0.027 0.763 0.073 1.441 0.284 2.034 0.634 0.594 0.356 0.927 0.952 1.001 1.789v0c0.012 0.139-0.012 0.429-0.074 0.87-0.068 0.448-0.164 0.871-0.289 1.27-0.119 0.399-0.268 0.606-0.447 0.622v0c-0.066 0.006-0.104-0.044-0.114-0.151v0c-0.019-0.213-0.003-0.418 0.046-0.616 0.057-0.192 0.074-0.411 0.052-0.657v0c-0.074-0.837-0.488-1.433-1.242-1.788-0.748-0.356-1.582-0.563-2.504-0.622-0.915-0.06-1.689-0.062-2.32-0.006v0c-1.361 0.12-2.64 0.461-3.835 1.021-1.202 0.561-2.287 1.306-3.256 2.235v0c1.51 0.429 3.176 0.994 4.999 1.697 1.822 0.702 3.569 1.575 5.241 2.619 1.672 1.05 3.079 2.281 4.221 3.693 1.148 1.404 1.804 3.033 1.967 4.886v0c0.144 1.634-0.234 3.149-1.134 4.548-0.894 1.397-2.108 2.649-3.644 3.755-1.536 1.099-3.219 2.048-5.049 2.845-1.824 0.79-3.622 1.421-5.395 1.892-1.765 0.477-3.291 0.773-4.58 0.886v0c-0.179 0.016-0.566 0.03-1.161 0.042-0.594 0.019-1.158-0.001-1.691-0.061-0.533-0.053-0.81-0.186-0.829-0.399v0c-0.018-0.206 0.12-0.342 0.416-0.408 0.296-0.06 0.477-0.092 0.543-0.098v0c0.591-0.052 1.17-0.05 1.738 0.007 0.567 0.057 1.13 0.061 1.687 0.012v0c1.116-0.099 2.368-0.35 3.759-0.754 1.39-0.404 2.784-0.949 4.182-1.634 1.398-0.686 2.679-1.495 3.841-2.427 1.163-0.926 2.082-1.964 2.757-3.115 0.668-1.15 0.942-2.406 0.822-3.767v0c-0.151-1.707-0.723-3.219-1.716-4.537-0.993-1.318-2.235-2.456-3.725-3.415-1.49-0.959-3.057-1.768-4.701-2.426-1.638-0.665-3.161-1.2-4.569-1.604v0c-0.756 0.984-1.498 2.21-2.225 3.68-0.734 1.47-1.433 3.024-2.098 4.662-0.659 1.638-1.269 3.248-1.832 4.83-0.57 1.576-1.064 2.962-1.48 4.156v0c-1.19 3.271-2.587 6.55-4.191 9.837-1.61 3.288-3.621 6.216-6.031 8.785v0c-1.384 1.454-2.909 2.676-4.575 3.666-1.673 0.991-3.535 1.577-5.587 1.759zM152.532 22.064v0c-0.066 0.006-0.113-0.027-0.139-0.098-0.019-0.065-0.03-0.114-0.033-0.147v0c-0.019-0.213-0.013-0.417 0.016-0.614 0.036-0.197 0.066-0.384 0.091-0.56v0c0.28-1.604 0.485-3.265 0.614-4.984 0.129-1.718 0.123-3.377-0.018-4.977v0c-0.025-0.279-0.079-0.662-0.161-1.151-0.076-0.482-0.212-0.925-0.409-1.329-0.19-0.405-0.494-0.589-0.912-0.552v0c-0.352 0.031-0.566 0.181-0.643 0.449-0.083 0.275-0.211 0.42-0.383 0.435v0c-0.106 0.009-0.164-0.039-0.174-0.145v0c-0.006-0.073 0.017-0.182 0.072-0.328v0c0.261-0.686 0.66-1.353 1.198-2.003 0.539-0.643 1.193-0.999 1.964-1.067v0c0.624-0.055 1.104 0.113 1.44 0.505 0.329 0.393 0.562 0.874 0.7 1.444 0.143 0.563 0.237 1.09 0.28 1.582v0c0.178 2.019-0.043 4.093-0.665 6.223-0.622 2.13-1.288 4.139-1.998 6.029v0c-0.021 0.142-0.133 0.39-0.336 0.742-0.196 0.352-0.364 0.534-0.504 0.546zM187.604 29.592v0c-0.105 0.017-0.386 0.036-0.842 0.056-0.456 0.02-0.901 0.001-1.336-0.057-0.434-0.051-0.665-0.162-0.692-0.333v0c-0.079-0.487 0.033-1.214 0.334-2.182 0.301-0.974 0.726-2.063 1.274-3.266 0.553-1.211 1.12-2.421 1.7-3.629 0.587-1.21 1.133-2.318 1.639-3.326 0.513-1.002 0.901-1.791 1.166-2.367v0c0.335-0.764 0.774-1.767 1.315-3.009 0.541-1.243 1.092-2.554 1.651-3.936 0.552-1.386 1.022-2.695 1.409-3.926 0.388-1.231 0.592-2.223 0.611-2.976v0c0.022-0.071 0.022-0.176 0-0.314v0c-0.057-0.349-0.159-0.545-0.308-0.589-0.15-0.05-0.236-0.144-0.259-0.282v0c-0.011-0.066 0.151-0.217 0.484-0.453 0.334-0.23 0.729-0.48 1.185-0.75 0.449-0.269 0.879-0.514 1.289-0.736 0.409-0.228 0.682-0.354 0.82-0.376v0c0.204-0.033 0.365 0.083 0.482 0.347 0.111 0.266 0.177 0.468 0.2 0.606v0c0.096 0.592 0.048 1.232-0.145 1.918-0.186 0.685-0.395 1.293-0.626 1.824v0c-0.923 2.176-1.923 4.317-3 6.423-1.083 2.107-2.124 4.225-3.123 6.353-1.004 2.135-1.869 4.342-2.593 6.62v0c-0.099 0.266-0.203 0.621-0.313 1.064-0.104 0.442-0.131 0.818-0.081 1.128v0c0.05 0.309 0.197 0.444 0.441 0.404v0c0.204-0.033 0.424-0.157 0.659-0.37 0.229-0.213 0.404-0.383 0.525-0.511v0c1.099-1.097 2.217-2.173 3.356-3.229 1.145-1.057 2.381-1.977 3.706-2.759v0c0.033-0.005 0.148-0.068 0.344-0.188 0.19-0.119 0.305-0.181 0.345-0.187v0c0.204-0.033 0.326 0.072 0.365 0.315v0c-0.741 0.471-1.576 1.11-2.505 1.916-0.935 0.814-1.866 1.694-2.793 2.642-0.927 0.947-1.766 1.897-2.517 2.85-0.749 0.959-1.328 1.826-1.735 2.601v0c-0.105 0.226-0.2 0.455-0.284 0.685-0.085 0.223-0.161 0.465-0.227 0.725v0c-0.104 0.442-0.348 0.749-0.732 0.919-0.378 0.169-0.774 0.288-1.189 0.355zM198.044 28.181v0c-0.274 0.056-0.559 0.06-0.855 0.012v0c0.049-0.623 0.174-1.274 0.374-1.955 0.199-0.687 0.38-1.334 0.542-1.938v0c0.599-2.124 1.358-4.26 2.278-6.409 0.912-2.154 1.988-4.226 3.226-6.216 1.232-1.988 2.62-3.764 4.164-5.326v0c0.264-0.272 0.694-0.513 1.291-0.724 0.603-0.212 1.236-0.397 1.897-0.553 0.67-0.151 1.175-0.262 1.515-0.331v0c0.209-0.043 0.745-0.136 1.606-0.279 0.862-0.143 1.817-0.284 2.864-0.424 1.039-0.145 1.952-0.254 2.74-0.328 0.788-0.073 1.216-0.045 1.283 0.084v0c-0.39 0.189-0.785 0.45-1.187 0.785-0.394 0.333-0.694 0.697-0.898 1.093v0c-1.112 1.875-2.009 3.856-2.691 5.942-0.681 2.086-1.269 4.18-1.762 6.283v0c-0.055 0.263-0.116 0.544-0.184 0.844-0.061 0.298-0.064 0.585-0.008 0.859v0c0.042 0.202 0.115 0.293 0.219 0.271v0c0.065-0.013 0.143-0.063 0.235-0.15 0.09-0.093 0.148-0.16 0.173-0.199v0c0.991-1.272 2.172-2.613 3.544-4.024 1.372-1.405 2.74-2.533 4.103-3.385v0c0.026-0.039 0.165-0.139 0.418-0.3 0.253-0.161 0.399-0.245 0.438-0.253v0c0.098-0.02 0.175 0.008 0.232 0.085 0.05 0.078 0.099 0.15 0.146 0.215v0c-0.72 0.502-1.528 1.175-2.423 2.019-0.9 0.852-1.794 1.77-2.681 2.755-0.887 0.985-1.685 1.969-2.396 2.952-0.709 0.989-1.251 1.88-1.626 2.671v0c-0.096 0.231-0.171 0.46-0.226 0.69-0.063 0.224-0.138 0.471-0.225 0.74v0c-0.125 0.454-0.382 0.776-0.772 0.965-0.39 0.189-0.807 0.329-1.251 0.42v0c-0.137 0.028-0.449 0.065-0.937 0.111-0.494 0.047-0.969 0.053-1.426 0.017-0.449-0.03-0.69-0.131-0.725-0.3v0c-0.05-0.242 0.059-0.791 0.325-1.649 0.273-0.859 0.646-1.875 1.12-3.048 0.475-1.166 0.958-2.347 1.447-3.543 0.484-1.188 0.938-2.244 1.361-3.169 0.416-0.923 0.713-1.565 0.891-1.928v0c-0.885 1.257-1.843 2.475-2.875 3.653-1.026 1.17-2.044 2.342-3.055 3.516v0c-1.094 1.3-2.223 2.597-3.387 3.89-1.165 1.287-2.374 2.526-3.627 3.715v0c-0.453 0.413-0.947 0.79-1.483 1.131-0.534 0.348-1.112 0.585-1.732 0.713zM202.14 23.318v0c0.202-0.042 0.433-0.181 0.69-0.417 0.259-0.23 0.463-0.415 0.611-0.554v0c1.17-1.098 2.372-2.335 3.608-3.711 1.235-1.376 2.435-2.793 3.598-4.251 1.172-1.452 2.197-2.823 3.076-4.112v0c0.218-0.331 0.467-0.759 0.747-1.286 0.288-0.522 0.386-1.005 0.295-1.449v0c-0.099-0.483-0.444-0.77-1.034-0.86-0.591-0.096-1.224-0.093-1.897 0.012-0.679 0.105-1.189 0.193-1.528 0.262v0c-0.209 0.043-0.465 0.106-0.768 0.189-0.304 0.076-0.527 0.2-0.669 0.372v0c-0.671 0.743-1.355 1.687-2.053 2.83-0.69 1.149-1.355 2.384-1.995 3.707-0.639 1.329-1.195 2.634-1.667 3.915-0.467 1.273-0.834 2.4-1.103 3.381v0c-0.062 0.196-0.138 0.474-0.227 0.833-0.091 0.352-0.112 0.649-0.062 0.89v0c0.043 0.209 0.169 0.292 0.378 0.249zM226.154 21.931v0c-0.303 0.078-0.826 0.214-1.569 0.405-0.749 0.194-1.558 0.393-2.428 0.597-0.868 0.211-1.662 0.389-2.382 0.534-0.718 0.151-1.205 0.226-1.461 0.222v0c-0.062-0.239-0.023-0.648 0.117-1.228 0.139-0.58 0.318-1.139 0.537-1.678 0.224-0.547 0.455-0.851 0.693-0.912v0c0.065-0.017 0.326-0.084 0.784-0.203 0.458-0.119 0.699-0.201 0.721-0.249v0c0.063-0.051 0.103-0.106 0.122-0.165 0.019-0.06 0.044-0.111 0.074-0.154v0c0.165-0.187 0.549-0.621 1.152-1.299 0.602-0.679 1.25-1.425 1.941-2.238 0.692-0.812 1.281-1.543 1.768-2.192 0.48-0.647 0.702-1.039 0.667-1.175v0c-0.053-0.207-0.277-0.311-0.67-0.312-0.401-0.006-0.856 0.018-1.364 0.074-0.507 0.062-0.988 0.135-1.442 0.218-0.449 0.075-0.761 0.118-0.937 0.129v0c-0.168 0.043-0.269-0.003-0.305-0.138v0c-0.062-0.239 0.048-0.439 0.33-0.602 0.282-0.162 0.506-0.265 0.674-0.309v0l5.596-1.447c0.815-1.189 1.609-2.379 2.382-3.57 0.778-1.2 1.551-2.405 2.319-3.616v0c-1.071 0.174-2.167 0.406-3.291 0.696v0c-0.471 0.122-1.194 0.336-2.168 0.644-0.969 0.299-1.899 0.646-2.788 1.041-0.896 0.397-1.484 0.811-1.765 1.241v0c-0.077 0.13-0.246 0.418-0.51 0.866-0.263 0.447-0.482 0.693-0.656 0.737v0c-0.065 0.017-0.11-0.027-0.137-0.13v0l-0.037-0.145c-0.132-0.51-0.038-1.157 0.282-1.942 0.319-0.792 0.662-1.38 1.031-1.765v0c0.258-0.28 0.757-0.588 1.497-0.924 0.746-0.338 1.566-0.667 2.461-0.987 0.893-0.327 1.74-0.619 2.542-0.875 0.8-0.262 1.368-0.436 1.703-0.523v0c1.155-0.299 2.272-0.536 3.349-0.711v0c0.124-0.211 0.291-0.406 0.499-0.584 0.201-0.183 0.42-0.305 0.66-0.366v0c0.071-0.018 0.16-0.021 0.266-0.007 0.112 0.006 0.181 0.06 0.208 0.163v0c0.025 0.097 0.023 0.197-0.005 0.301-0.03 0.097-0.069 0.187-0.117 0.267v0c0.176-0.011 0.432-0.033 0.769-0.064 0.336-0.032 0.526 0.036 0.569 0.204v0c0.062 0.239 0.009 0.552-0.16 0.94-0.175 0.389-0.391 0.752-0.648 1.087-0.256 0.342-0.5 0.542-0.733 0.602v0c-0.207 0.053-0.436 0.085-0.688 0.096-0.246 0.008-0.492 0.027-0.739 0.057v0c-0.649 1.139-1.324 2.27-2.025 3.395-0.701 1.125-1.415 2.249-2.143 3.374v0l3.514-0.909c0.136-0.035 0.217-0.001 0.244 0.102v0c0.035 0.136-0.014 0.293-0.147 0.472-0.139 0.181-0.277 0.288-0.412 0.324v0c-0.503 0.13-1.105 0.32-1.805 0.57-0.692 0.255-1.352 0.563-1.981 0.925-0.629 0.362-1.1 0.78-1.411 1.253v0c-0.1 0.171-0.343 0.523-0.729 1.056-0.385 0.533-0.818 1.162-1.3 1.886-0.487 0.725-0.963 1.444-1.425 2.155-0.468 0.72-0.853 1.336-1.154 1.848-0.301 0.512-0.435 0.835-0.4 0.971v0l0.071 0.034c1.119-0.145 2.215-0.301 3.287-0.468 1.079-0.169 2.144-0.389 3.196-0.662v0c0.574-0.149 1.278-0.396 2.112-0.742 0.835-0.34 1.571-0.782 2.208-1.325 0.638-0.544 0.973-1.164 1.006-1.861v0c0.036-0.154 0.076-0.319 0.12-0.496 0.046-0.17 0.152-0.277 0.32-0.32v0c0.207-0.053 0.349 0.072 0.427 0.375v0l0.041 0.154c0.091 1.202-0.22 2.212-0.932 3.03-0.705 0.816-1.62 1.497-2.746 2.043-1.128 0.539-2.296 0.986-3.506 1.34-1.212 0.348-2.259 0.636-3.143 0.865zM238.694 19.122v0c-0.267 0.083-0.55 0.116-0.85 0.097v0c-0.013-0.624 0.046-1.285 0.178-1.983 0.13-0.704 0.245-1.365 0.345-1.983v0c0.384-2.173 0.926-4.374 1.627-6.604 0.693-2.234 1.556-4.403 2.59-6.506 1.028-2.101 2.232-4.006 3.612-5.715v0c0.236-0.297 0.64-0.58 1.212-0.849 0.579-0.271 1.19-0.518 1.833-0.74 0.652-0.217 1.143-0.377 1.474-0.48v0c0.204-0.064 0.727-0.209 1.571-0.438 0.844-0.228 1.779-0.464 2.807-0.708 1.019-0.248 1.917-0.448 2.693-0.599 0.777-0.152 1.205-0.166 1.285-0.045v0c-0.369 0.227-0.737 0.527-1.102 0.899-0.359 0.37-0.621 0.763-0.785 1.177v0c-0.92 1.977-1.614 4.037-2.084 6.181-0.47 2.144-0.845 4.286-1.127 6.428v0c-0.028 0.267-0.061 0.553-0.099 0.858-0.031 0.303-0.005 0.588 0.078 0.855v0c0.062 0.197 0.143 0.28 0.245 0.249v0c0.064-0.02 0.136-0.077 0.219-0.173 0.08-0.102 0.131-0.174 0.152-0.215v0c0.859-1.364 1.901-2.817 3.125-4.358 1.225-1.534 2.474-2.793 3.745-3.777v0c0.022-0.042 0.151-0.155 0.386-0.34 0.236-0.185 0.372-0.284 0.411-0.296v0c0.095-0.03 0.175-0.009 0.239 0.061 0.058 0.073 0.113 0.139 0.167 0.2v0c-0.667 0.571-1.404 1.321-2.211 2.25-0.811 0.937-1.609 1.94-2.392 3.009-0.784 1.069-1.48 2.127-2.089 3.176-0.607 1.055-1.057 1.995-1.352 2.821v0c-0.072 0.239-0.124 0.475-0.156 0.708-0.04 0.229-0.091 0.482-0.15 0.759v0c-0.079 0.464-0.302 0.81-0.672 1.038-0.369 0.227-0.77 0.408-1.203 0.542v0c-0.134 0.042-0.441 0.11-0.921 0.204-0.487 0.096-0.959 0.149-1.417 0.159-0.449 0.014-0.7-0.061-0.752-0.226v0c-0.073-0.235-0.02-0.793 0.159-1.674 0.186-0.882 0.456-1.93 0.811-3.144 0.357-1.208 0.719-2.431 1.086-3.67 0.363-1.231 0.709-2.327 1.038-3.288 0.322-0.959 0.553-1.629 0.694-2.008v0c-0.756 1.339-1.587 2.646-2.496 3.921-0.904 1.267-1.8 2.534-2.689 3.804v0c-0.959 1.403-1.953 2.806-2.982 4.209-1.031 1.397-2.11 2.75-3.238 4.058v0c-0.409 0.456-0.864 0.88-1.363 1.274-0.497 0.399-1.048 0.693-1.652 0.882zM242.284 13.875v0c0.197-0.062 0.412-0.223 0.645-0.485 0.235-0.255 0.419-0.459 0.553-0.612v0c1.055-1.209 2.128-2.56 3.219-4.052 1.092-1.493 2.144-3.022 3.157-4.589 1.021-1.562 1.905-3.028 2.651-4.398v0c0.184-0.351 0.389-0.802 0.614-1.355 0.234-0.548 0.284-1.038 0.149-1.471v0c-0.147-0.471-0.518-0.722-1.115-0.752-0.598-0.037-1.227 0.03-1.885 0.201-0.665 0.173-1.164 0.311-1.495 0.413v0c-0.204 0.064-0.452 0.151-0.745 0.264-0.295 0.106-0.505 0.252-0.629 0.437v0c-0.593 0.807-1.18 1.814-1.76 3.021-0.572 1.212-1.11 2.508-1.616 3.888-0.503 1.386-0.926 2.74-1.268 4.062-0.338 1.313-0.591 2.471-0.76 3.474v0c-0.042 0.202-0.09 0.485-0.143 0.851-0.055 0.359-0.046 0.657 0.027 0.892v0c0.064 0.204 0.197 0.274 0.401 0.211z" opacity="1" transform="matrix(1,0,0,1,0,0)" fill="#000000" class="wordmark-text-0" data-fill-palette-color="primary" id="text-0"></path></svg></g></svg></g></svg></g></svg></g><g transform="matrix(1,0,0,1,147.85184235821598,0)"><svg viewBox="0 0 99.81631528356803 99.98300853009158" height="99.98300853009158" width="99.81631528356803"><g><svg xmlns="http://www.w3.org/2000/svg" xmlns:xlink="http://www.w3.org/1999/xlink" version="1.1" x="0" y="0" viewBox="0 0 100 100.167" enable-background="new 0 0 100 100" xml:space="preserve" id="icon-0" width="99.81631528356803" height="99.98300853009158" class="icon-icon-0" data-fill-palette-color="accent"><g fill="#ffdb99" data-fill-palette-color="accent"><path fill-rule="evenodd" clip-rule="evenodd" d="M47.167 0H53C67.038 1.07 77.508 6.841 85.167 14.5 92.821 22.154 98.885 32.348 100 46.334 99.431 46.547 98.967 45.658 98.333 45.167 91.925 40.195 84.579 47.892 76.667 48.5 74.015 48.705 71.555 48.53 68.334 48 66.995 42.885 68.008 37.984 69.667 33.5 70.679 30.765 72.57 28.004 73 25.167 73.264 23.419 72.749 21.651 72.833 19.834 72.949 17.343 74.947 15.504 74 12.834 71.377 12.111 71.22 15.267 70.166 16.667 69.559 16.974 69.189 16.129 68.666 15.834 62.016 12.077 54.908 19.07 55.5 25.5 55.891 29.74 59.367 32.792 64.5 32.833 64.083 38.144 61.73 42.95 60.833 48.333 55.963 48.947 50.42 50.049 44.833 51 35.595 52.572 26.142 52.833 24.666 61.833 36.141 60.641 47.777 58.166 59.666 56.833 58.04 68.429 55.729 80.228 54.5 91.667 61.77 91.041 63.343 83.919 64.5 76.834 65.65 69.79 67.039 61.915 68.167 55.333 74.043 54.986 78.136 51.972 83.833 52 84.486 53.042 83.973 54.237 84.167 55.166 85.531 61.718 96.081 62.306 99.5 57.833 94.348 82.369 78.941 97.584 51.666 100.167H48.5C33.908 99.3 22.838 93.671 15 85.833 7.149 77.982 1.103 67.376 0 53V47.167C0.868 33.795 7.13 21.876 14.667 14.5 22.701 6.636 33.399 1.114 47.167 0" fill="#000000" data-fill-palette-color="accent"></path><path fill-rule="evenodd" clip-rule="evenodd" d="M64.167 18.833C71.01 18.363 70.721 30.22 63.834 29.333 58.443 28.639 57.743 19.274 64.167 18.833" fill="#000000" data-fill-palette-color="accent"></path><path fill-rule="evenodd" clip-rule="evenodd" d="M91.333 47.333C94.462 46.634 97.766 48.631 98 51.5 98.646 59.41 85.228 57.955 87.667 50.5 88.014 49.438 89.111 47.829 91.333 47.333" fill="#000000" data-fill-palette-color="accent"></path></g></svg></g></svg></g><g></g></svg></g><defs></defs></svg><rect width="395.52" height="206.2138990874601" fill="none" stroke="none" visibility="hidden"></rect></g></svg></g></svg>